<svg xmlns="http://www.w3.org/2000/svg" xmlns:xlink="http://www.w3.org/1999/xlink" version="1.1" width="256" height="256" viewBox="0 0 256 256" xml:space="preserve">

<defs>
</defs>
<g style="stroke: none; stroke-width: 0; stroke-dasharray: none; stroke-linecap: butt; stroke-linejoin: miter; stroke-miterlimit: 10; fill: none; fill-rule: nonzero; opacity: 1;" transform="translate(1.4065934065934016 1.4065934065934016) scale(2.81 2.81)" >
	<path d="M 64.603 31 c -0.212 0 -0.423 -0.067 -0.6 -0.2 l -7.199 -5.392 l -7.199 5.392 c -0.304 0.228 -0.707 0.265 -1.047 0.094 c -0.339 -0.169 -0.553 -0.516 -0.553 -0.894 V 6.605 c 0 -0.552 0.447 -1 1 -1 h 15.598 c 0.553 0 1 0.448 1 1 V 30 c 0 0.378 -0.214 0.725 -0.553 0.894 C 64.908 30.966 64.755 31 64.603 31 z M 56.804 23.159 c 0.211 0 0.422 0.066 0.6 0.2 l 6.199 4.643 V 7.605 H 50.005 v 20.397 l 6.199 -4.643 C 56.382 23.226 56.593 23.159 56.804 23.159 z" style="stroke: none; stroke-width: 1; stroke-dasharray: none; stroke-linecap: butt; stroke-linejoin: miter; stroke-miterlimit: 10; fill: rgb(0,0,0); fill-rule: nonzero; opacity: 1;" transform=" matrix(1 0 0 1 0 0) " stroke-linecap="round" />
	<path d="M 38.873 82.071 c -1.085 0 -2.17 -0.119 -3.227 -0.355 l -11.663 -2.601 c -1.261 -0.28 -2.555 -0.423 -3.844 -0.423 h -8.185 c -0.552 0 -1 -0.447 -1 -1 V 63.424 c 0 -0.268 0.107 -0.524 0.298 -0.713 c 0.191 -0.188 0.473 -0.291 0.717 -0.287 l 5.326 0.084 c 0.474 0.023 0.924 -0.171 1.292 -0.492 c 4.385 -3.832 8.442 -6.522 15.109 -8.095 c 1.182 -0.265 2.347 -0.491 3.523 -0.721 c 3.936 -0.768 8.006 -1.561 12.789 -3.825 c 2.032 -0.961 3.705 -0.929 4.97 0.093 c 1.01 0.819 1.647 2.171 1.623 3.444 c -0.019 1.028 -0.454 1.913 -1.224 2.491 c -4.331 3.247 -7.869 4.815 -11.29 6.331 c -0.77 0.342 -1.514 0.671 -2.25 1.013 c 6.419 4.045 19.766 1.67 29.685 -0.097 c 2.209 -0.396 4.367 0.93 5.023 3.075 c 0.667 2.174 -0.406 4.49 -2.496 5.388 l -22.877 9.662 c -1.787 0.768 -3.684 1.173 -5.632 1.201 l 0 0 l -6.455 0.094 C 39.016 82.071 38.944 82.071 38.873 82.071 z M 45.527 80.977 h 0.01 H 45.527 z M 12.955 76.692 h 7.185 c 1.435 0 2.875 0.158 4.279 0.471 l 11.664 2.602 c 0.974 0.218 1.978 0.323 2.976 0.306 l 6.455 -0.094 c 1.686 -0.024 3.327 -0.375 4.878 -1.041 l 22.877 -9.662 c 1.144 -0.492 1.733 -1.766 1.367 -2.962 c -0.361 -1.18 -1.551 -1.91 -2.761 -1.692 c -11.013 1.961 -26.098 4.646 -32.613 -1.329 c -0.243 -0.223 -0.36 -0.55 -0.314 -0.876 c 0.045 -0.325 0.248 -0.608 0.542 -0.756 c 1.261 -0.632 2.489 -1.176 3.79 -1.752 c 3.319 -1.471 6.752 -2.992 10.9 -6.103 c 0.273 -0.206 0.417 -0.519 0.425 -0.929 c 0.013 -0.67 -0.343 -1.415 -0.884 -1.854 c -0.397 -0.322 -1.128 -0.656 -2.854 0.161 c -5.009 2.372 -9.204 3.189 -13.261 3.98 c -1.158 0.226 -2.305 0.449 -3.458 0.707 c -6.281 1.481 -9.98 3.928 -14.242 7.652 c -0.737 0.645 -1.664 0.991 -2.632 0.985 l -4.317 -0.068 V 76.692 z" style="stroke: none; stroke-width: 1; stroke-dasharray: none; stroke-linecap: butt; stroke-linejoin: miter; stroke-miterlimit: 10; fill: rgb(0,0,0); fill-rule: nonzero; opacity: 1;" transform=" matrix(1 0 0 1 0 0) " stroke-linecap="round" />
	<path d="M 12.955 84.395 H 0 V 59.7 h 12.955 V 84.395 z M 2 82.395 h 8.955 V 61.7 H 2 V 82.395 z" style="stroke: none; stroke-width: 1; stroke-dasharray: none; stroke-linecap: butt; stroke-linejoin: miter; stroke-miterlimit: 10; fill: rgb(0,0,0); fill-rule: nonzero; opacity: 1;" transform=" matrix(1 0 0 1 0 0) " stroke-linecap="round" />
	<path d="M 89 67.987 H 75.742 c -0.553 0 -1 -0.447 -1 -1 s 0.447 -1 1 -1 H 88 V 7.605 H 25.607 v 51.084 c 0 0.553 -0.448 1 -1 1 s -1 -0.447 -1 -1 V 6.605 c 0 -0.552 0.448 -1 1 -1 H 89 c 0.553 0 1 0.448 1 1 v 60.382 C 90 67.54 89.553 67.987 89 67.987 z" style="stroke: none; stroke-width: 1; stroke-dasharray: none; stroke-linecap: butt; stroke-linejoin: miter; stroke-miterlimit: 10; fill: rgb(0,0,0); fill-rule: nonzero; opacity: 1;" transform=" matrix(1 0 0 1 0 0) " stroke-linecap="round" />
</g>
</svg>