<svg xmlns="http://www.w3.org/2000/svg" xmlns:xlink="http://www.w3.org/1999/xlink" version="1.1" width="256" height="256" viewBox="0 0 256 256" xml:space="preserve">

<defs>
</defs>
<g style="stroke: none; stroke-width: 0; stroke-dasharray: none; stroke-linecap: butt; stroke-linejoin: miter; stroke-miterlimit: 10; fill: none; fill-rule: nonzero; opacity: 1;" transform="translate(1.4065934065934016 1.4065934065934016) scale(2.81 2.81)" >
	<path d="M 72.692 28.948 c -0.188 -2.03 -1.867 -3.562 -3.906 -3.562 h -6.481 v -8.082 C 62.305 7.763 54.542 0 45 0 S 27.695 7.763 27.695 17.305 v 8.082 h -6.482 c -2.039 0 -3.718 1.531 -3.905 3.562 L 12.08 85.719 c -0.101 1.096 0.266 2.189 1.007 3.002 C 13.829 89.534 14.884 90 15.984 90 h 58.031 c 1.1 0 2.155 -0.466 2.896 -1.278 s 1.109 -1.907 1.009 -3.003 L 72.692 28.948 z M 29.695 17.305 C 29.695 8.866 36.561 2 45 2 c 8.439 0 15.305 6.866 15.305 15.305 v 8.082 H 29.695 V 17.305 z M 75.435 87.374 C 75.066 87.777 74.563 88 74.016 88 H 15.984 c -0.547 0 -1.051 -0.223 -1.419 -0.627 c -0.369 -0.403 -0.544 -0.926 -0.494 -1.471 L 19.3 29.131 c 0.092 -0.995 0.915 -1.745 1.914 -1.745 h 6.482 v 4.741 c -1.83 0.451 -3.195 2.094 -3.195 4.062 c 0 2.313 1.882 4.195 4.195 4.195 c 2.313 0 4.195 -1.882 4.195 -4.195 c 0 -1.967 -1.366 -3.61 -3.195 -4.061 v -4.741 h 30.609 v 4.741 c -1.83 0.451 -3.195 2.094 -3.195 4.062 c 0 2.313 1.882 4.195 4.195 4.195 s 4.195 -1.882 4.195 -4.195 c 0 -1.967 -1.366 -3.61 -3.195 -4.062 v -4.741 h 6.481 c 1 0 1.822 0.75 1.914 1.745 l 5.229 56.771 C 75.979 86.446 75.804 86.97 75.435 87.374 z M 28.695 33.993 c 1.21 0 2.195 0.985 2.195 2.195 s -0.984 2.195 -2.195 2.195 S 26.5 37.399 26.5 36.188 S 27.485 33.993 28.695 33.993 z M 61.305 33.993 c 1.211 0 2.195 0.985 2.195 2.195 s -0.984 2.195 -2.195 2.195 s -2.195 -0.984 -2.195 -2.195 S 60.094 33.993 61.305 33.993 z" style="stroke: none; stroke-width: 1; stroke-dasharray: none; stroke-linecap: butt; stroke-linejoin: miter; stroke-miterlimit: 10; fill: #D10024; fill-rule: nonzero; opacity: 1;" transform=" matrix(1 0 0 1 0 0) " stroke-linecap="round" />
	<path d="M 51.942 78.5 c -3.34 0 -6.057 -2.718 -6.057 -6.058 s 2.717 -6.057 6.057 -6.057 S 58 69.103 58 72.442 S 55.282 78.5 51.942 78.5 z M 51.942 68.386 c -2.237 0 -4.057 1.819 -4.057 4.057 s 1.819 4.058 4.057 4.058 S 56 74.68 56 72.442 S 54.18 68.386 51.942 68.386 z" style="stroke: none; stroke-width: 1; stroke-dasharray: none; stroke-linecap: butt; stroke-linejoin: miter; stroke-miterlimit: 10; fill: #D10024; fill-rule: nonzero; opacity: 1;" transform=" matrix(1 0 0 1 0 0) " stroke-linecap="round" />
	<path d="M 38.057 64.614 c -3.34 0 -6.057 -2.717 -6.057 -6.057 s 2.717 -6.058 6.057 -6.058 s 6.057 2.718 6.057 6.058 S 41.397 64.614 38.057 64.614 z M 38.057 54.5 C 35.82 54.5 34 56.32 34 58.558 s 1.82 4.057 4.057 4.057 s 4.057 -1.819 4.057 -4.057 S 40.294 54.5 38.057 54.5 z" style="stroke: none; stroke-width: 1; stroke-dasharray: none; stroke-linecap: butt; stroke-linejoin: miter; stroke-miterlimit: 10; fill: #D10024; fill-rule: nonzero; opacity: 1;" transform=" matrix(1 0 0 1 0 0) " stroke-linecap="round" />
	<path d="M 33 78.5 c -0.256 0 -0.512 -0.098 -0.707 -0.293 c -0.391 -0.391 -0.391 -1.023 0 -1.414 l 24 -24 c 0.391 -0.391 1.023 -0.391 1.414 0 s 0.391 1.023 0 1.414 l -24 24 C 33.512 78.402 33.256 78.5 33 78.5 z" style="stroke: none; stroke-width: 1; stroke-dasharray: none; stroke-linecap: butt; stroke-linejoin: miter; stroke-miterlimit: 10; fill: #D10024; fill-rule: nonzero; opacity: 1;" transform=" matrix(1 0 0 1 0 0) " stroke-linecap="round" />
</g>
</svg>