<svg xmlns="http://www.w3.org/2000/svg" xmlns:xlink="http://www.w3.org/1999/xlink" version="1.1" width="256" height="256" viewBox="0 0 256 256" xml:space="preserve">

<defs>
</defs>
<g style="stroke: none; stroke-width: 0; stroke-dasharray: none; stroke-linecap: butt; stroke-linejoin: miter; stroke-miterlimit: 10; fill: none; fill-rule: nonzero; opacity: 1;" transform="translate(1.4065934065934016 1.4065934065934016) scale(2.81 2.81)" >
	<path d="M 89.334 47.69 L 79.145 36.229 c -0.5 -0.563 -1.218 -0.885 -1.97 -0.885 h -9.356 v -6.467 c 0 -3.053 -2.1 -5.537 -4.681 -5.537 H 31.866 c -2.581 0 -4.681 2.484 -4.681 5.537 v 30.23 c 0 1.758 1.245 3.188 2.774 3.188 h 7.277 c 0.563 2.495 2.794 4.365 5.457 4.365 s 4.893 -1.87 5.457 -4.365 h 17.669 h 2 h 7.542 c 0.563 2.495 2.794 4.365 5.457 4.365 s 4.894 -1.87 5.457 -4.365 h 1.089 c 1.453 0 2.636 -1.183 2.636 -2.636 V 49.441 C 90 48.797 89.764 48.175 89.334 47.69 z M 86.773 47.819 H 74.619 c -0.255 0 -0.463 -0.207 -0.463 -0.462 v -5.44 c 0 -0.255 0.208 -0.463 0.463 -0.463 h 6.495 L 86.773 47.819 z M 42.693 64.66 c -1.984 0 -3.598 -1.614 -3.598 -3.598 c 0 -1.984 1.614 -3.599 3.598 -3.599 s 3.598 1.614 3.598 3.599 C 46.291 63.046 44.677 64.66 42.693 64.66 z M 65.818 60.295 H 48.232 c -0.376 -2.724 -2.713 -4.831 -5.539 -4.831 s -5.163 2.107 -5.539 4.831 h -7.195 c -0.366 0 -0.774 -0.487 -0.774 -1.188 v -30.23 c 0 -1.95 1.203 -3.537 2.681 -3.537 h 31.272 c 1.479 0 2.681 1.587 2.681 3.537 v 6.467 V 60.295 z M 80.817 64.66 c -1.983 0 -3.598 -1.614 -3.598 -3.598 c 0 -1.984 1.614 -3.599 3.598 -3.599 c 1.984 0 3.599 1.614 3.599 3.599 C 84.416 63.046 82.802 64.66 80.817 64.66 z M 87.364 60.295 h -1.007 c -0.376 -2.724 -2.714 -4.831 -5.54 -4.831 s -5.163 2.107 -5.539 4.831 h -7.46 V 37.344 h 9.356 c 0.182 0 0.354 0.078 0.476 0.214 l 1.686 1.896 h -4.717 c -1.358 0 -2.463 1.105 -2.463 2.463 v 5.44 c 0 1.357 1.104 2.462 2.463 2.462 H 88 v 9.84 C 88 60.01 87.715 60.295 87.364 60.295 z" style="stroke: none; stroke-width: 1; stroke-dasharray: none; stroke-linecap: butt; stroke-linejoin: miter; stroke-miterlimit: 10; fill: #D10024; fill-rule: nonzero; opacity: 1;" transform=" matrix(1 0 0 1 0 0) " stroke-linecap="round" />
	<path d="M 21.207 52.942 H 8.615 c -0.552 0 -1 -0.447 -1 -1 s 0.448 -1 1 -1 h 12.592 c 0.552 0 1 0.447 1 1 S 21.759 52.942 21.207 52.942 z" style="stroke: none; stroke-width: 1; stroke-dasharray: none; stroke-linecap: butt; stroke-linejoin: miter; stroke-miterlimit: 10; fill: #D10024; fill-rule: nonzero; opacity: 1;" transform=" matrix(1 0 0 1 0 0) " stroke-linecap="round" />
	<path d="M 21.207 46.031 H 4.617 c -0.552 0 -1 -0.448 -1 -1 s 0.448 -1 1 -1 h 16.59 c 0.552 0 1 0.448 1 1 S 21.759 46.031 21.207 46.031 z" style="stroke: none; stroke-width: 1; stroke-dasharray: none; stroke-linecap: butt; stroke-linejoin: miter; stroke-miterlimit: 10; fill: #D10024; fill-rule: nonzero; opacity: 1;" transform=" matrix(1 0 0 1 0 0) " stroke-linecap="round" />
	<path d="M 21.207 39.121 H 1 c -0.552 0 -1 -0.448 -1 -1 s 0.448 -1 1 -1 h 20.207 c 0.552 0 1 0.448 1 1 S 21.759 39.121 21.207 39.121 z" style="stroke: none; stroke-width: 1; stroke-dasharray: none; stroke-linecap: butt; stroke-linejoin: miter; stroke-miterlimit: 10; fill: #D10024; fill-rule: nonzero; opacity: 1;" transform=" matrix(1 0 0 1 0 0) " stroke-linecap="round" />
	<path d="M 41.605 51.125 c -0.438 0 -0.873 -0.137 -1.244 -0.406 c -0.658 -0.479 -0.981 -1.273 -0.843 -2.074 l 0.877 -5.12 c 0.007 -0.04 -0.006 -0.079 -0.034 -0.106 l -3.72 -3.625 c -0.582 -0.567 -0.788 -1.4 -0.537 -2.174 c 0.251 -0.773 0.907 -1.327 1.711 -1.444 l 5.141 -0.747 c 0.039 -0.005 0.073 -0.03 0.09 -0.065 l 2.299 -4.658 c 0.36 -0.729 1.089 -1.182 1.901 -1.182 s 1.542 0.453 1.901 1.182 v 0 l 2.299 4.658 c 0.018 0.036 0.052 0.061 0.092 0.066 l 5.139 0.747 c 0.805 0.117 1.461 0.67 1.712 1.444 c 0.251 0.773 0.046 1.606 -0.536 2.173 l -3.72 3.626 c -0.028 0.027 -0.041 0.068 -0.034 0.108 l 0.878 5.118 c 0.138 0.802 -0.187 1.597 -0.845 2.074 c -0.656 0.477 -1.512 0.539 -2.232 0.16 l -4.597 -2.417 c -0.035 -0.018 -0.077 -0.019 -0.114 0.001 l -4.596 2.416 C 42.281 51.044 41.942 51.125 41.605 51.125 z M 47.248 31.523 c -0.075 0 -0.099 0.047 -0.108 0.067 l -2.298 4.657 c -0.309 0.625 -0.905 1.06 -1.597 1.161 l -5.141 0.747 c -0.021 0.003 -0.074 0.011 -0.097 0.082 c -0.023 0.071 0.015 0.108 0.031 0.124 l 3.72 3.625 c 0.5 0.487 0.728 1.189 0.609 1.877 l -0.877 5.119 c -0.004 0.022 -0.013 0.074 0.047 0.118 c 0.062 0.044 0.106 0.019 0.126 0.009 l 4.599 -2.417 c 0.617 -0.324 1.354 -0.325 1.972 -0.001 l 4.599 2.418 c 0.021 0.01 0.065 0.034 0.127 -0.009 c 0.062 -0.045 0.052 -0.097 0.049 -0.119 l -0.879 -5.118 c -0.117 -0.69 0.111 -1.391 0.609 -1.877 l 3.72 -3.626 c 0.017 -0.015 0.054 -0.052 0.03 -0.124 c -0.022 -0.071 -0.075 -0.079 -0.098 -0.082 l -5.139 -0.747 c -0.692 -0.101 -1.289 -0.535 -1.598 -1.161 l -2.298 -4.657 C 47.347 31.57 47.323 31.523 47.248 31.523 z" style="stroke: none; stroke-width: 1; stroke-dasharray: none; stroke-linecap: butt; stroke-linejoin: miter; stroke-miterlimit: 10; fill: #D10024; fill-rule: nonzero; opacity: 1;" transform=" matrix(1 0 0 1 0 0) " stroke-linecap="round" />
</g>
</svg>